<?xml version="1.0" encoding="UTF-8"?>
<svg xmlns="http://www.w3.org/2000/svg" xmlns:xlink="http://www.w3.org/1999/xlink" width="42px" height="37px" viewBox="0 0 42 37" version="1.1">
<g id="surface1">
<path style=" stroke:none;fill-rule:nonzero;fill:rgb(100%,44.705883%,10.588235%);fill-opacity:1;" d="M 25.082031 23.617188 L 41.65625 10.984375 C 41.769531 10.898438 41.839844 10.765625 41.839844 10.625 L 41.917969 0.460938 C 41.917969 0.207031 41.710938 0 41.457031 0 C 41.351562 0 41.246094 0.0351562 41.164062 0.0976562 L 19.5625 16.925781 C 19.535156 16.945312 19.519531 16.976562 19.515625 17.011719 C 19.511719 17.046875 19.523438 17.078125 19.542969 17.105469 L 19.550781 17.109375 L 21.089844 18.621094 C 21.8125 18.3125 22.652344 18.640625 22.964844 19.351562 C 23.28125 20.066406 22.949219 20.894531 22.226562 21.203125 C 21.503906 21.511719 20.664062 21.183594 20.347656 20.472656 C 20.226562 20.199219 20.199219 19.898438 20.265625 19.609375 L 15.21875 14.632812 L 15.226562 14.625 L 0.898438 0.5 C 0.8125 0.414062 0.691406 0.363281 0.570312 0.363281 C 0.445312 0.363281 0.328125 0.414062 0.242188 0.5 C 0.15625 0.585938 0.109375 0.703125 0.105469 0.828125 L 0.105469 5.570312 C 0.105469 5.605469 0.121094 5.636719 0.144531 5.660156 L 14.976562 19.691406 C 15.238281 19.617188 15.515625 19.621094 15.769531 19.703125 C 16.507812 19.9375 16.914062 20.710938 16.691406 21.441406 C 16.464844 22.167969 15.6875 22.585938 14.945312 22.375 C 14.398438 22.207031 14.003906 21.734375 13.945312 21.171875 C 13.933594 21.03125 13.9375 20.890625 13.964844 20.753906 L 0.320312 7.84375 C 0.265625 7.800781 0.1875 7.804688 0.136719 7.855469 C 0.117188 7.878906 0.105469 7.90625 0.105469 7.933594 L 0.105469 11.980469 C 0.109375 12.105469 0.160156 12.226562 0.25 12.316406 L 18.640625 29.757812 C 19.191406 29.570312 19.800781 29.730469 20.183594 30.164062 C 20.5625 30.59375 20.636719 31.214844 20.367188 31.722656 C 20.101562 32.230469 19.542969 32.527344 18.964844 32.46875 C 18.386719 32.410156 17.902344 32.007812 17.746094 31.457031 C 17.679688 31.238281 17.675781 31.003906 17.726562 30.78125 C 17.707031 30.769531 17.6875 30.75 17.667969 30.738281 L 15.433594 28.535156 C 15.34375 28.449219 15.226562 28.402344 15.101562 28.402344 L 0.105469 28.402344 C -0.0234375 28.402344 -0.0117188 30.855469 0.0195312 33.140625 C 0.0546875 35.292969 1.832031 37.019531 4.015625 37.019531 L 37.800781 37.019531 C 40.023438 37.019531 41.824219 35.242188 41.828125 33.050781 L 41.828125 28.703125 C 41.828125 28.578125 41.777344 28.460938 41.691406 28.375 C 41.601562 28.289062 41.484375 28.242188 41.359375 28.242188 L 29.226562 28.242188 C 29.105469 28.238281 28.984375 28.191406 28.894531 28.105469 L 25.03125 24.296875 C 24.945312 24.210938 24.894531 24.09375 24.894531 23.972656 C 24.894531 23.851562 24.945312 23.734375 25.03125 23.648438 C 25.050781 23.644531 25.070312 23.632812 25.082031 23.617188 Z M 25.082031 23.617188 "/>
</g>
</svg>
